<?xml version="1.0" encoding="UTF-8"?>
<svg width="32" height="32" viewBox="0 0 32 32" fill="none" xmlns="http://www.w3.org/2000/svg">
  <path d="M24 8H8C6.89543 8 6 8.89543 6 10V22C6 23.1046 6.89543 24 8 24H24C25.1046 24 26 23.1046 26 22V10C26 8.89543 25.1046 8 24 8Z" fill="#2e7d32"/>
  <path d="M28 12H26V10C26 8.89543 25.1046 8 24 8H8C6.89543 8 6 8.89543 6 10V12H4C2.89543 12 2 12.8954 2 14V20C2 21.1046 2.89543 22 4 22H6V24C6 25.1046 6.89543 26 8 26H24C25.1046 26 26 25.1046 26 24V22H28C29.1046 22 30 21.1046 30 20V14C30 12.8954 29.1046 12 28 12Z" stroke="#2e7d32" stroke-width="2"/>
  <circle cx="10" cy="20" r="2" fill="#2e7d32"/>
  <circle cx="22" cy="20" r="2" fill="#2e7d32"/>
</svg> 